<?xml version="1.0" encoding="utf-8"?>
<!DOCTYPE svg PUBLIC "-//W3C//DTD SVG 20010904//EN" "http://www.w3.org/TR/2001/REC-SVG-20010904/DTD/svg10.dtd">
<svg version="1.0" xmlns="http://www.w3.org/2000/svg" width="602pt" height="602pt" viewBox="0 0 602 602" style="" preserveAspectRatio="xMidYMid meet">
<g fill="#ffffff" stroke="#282627FF">
<path d="M 155.500 59.628 C 150.362 60.429 141.727 63.099 137.808 65.098 C 126.267 70.986 116.975 85.879 117.012 98.432 C 117.037 106.917 121.167 117.550 126.918 123.938 L 130.014 127.376 127.487 130.013 C 124.007 133.646 122.970 137.845 124.311 142.870 C 125.009 145.485 125.061 147.326 124.455 147.910 C 123.930 148.417 115.914 150.673 106.642 152.925 C 87.385 157.601 84.000 159.347 84.000 164.608 C 84.000 175.998 97.773 187.350 115.000 190.159 C 119.125 190.832 122.654 191.488 122.843 191.617 C 123.031 191.747 119.627 195.373 115.277 199.676 C 103.331 211.495 98.790 223.089 101.137 235.783 C 102.420 242.723 103.899 245.690 108.515 250.584 L 112.078 254.363 109.155 258.434 C 106.212 262.531 100.276 274.345 99.475 277.697 C 99.238 278.688 98.186 282.454 97.136 286.065 C 96.087 289.676 94.953 294.626 94.615 297.065 C 92.965 308.988 91.968 321.856 92.451 325.000 C 92.747 326.925 93.245 330.975 93.557 334.000 C 94.804 346.056 101.185 359.399 110.797 370.049 C 119.106 379.255 134.275 388.485 144.221 390.386 C 149.076 391.314 149.521 391.984 151.788 401.767 C 153.028 407.120 154.252 412.400 154.507 413.500 C 157.757 427.496 157.627 428.345 151.105 435.676 C 128.172 461.451 125.618 500.723 145.025 529.154 L 149.039 535.035 146.402 536.037 C 137.859 539.285 133.715 546.956 137.786 551.984 C 139.931 554.633 144.694 555.649 159.284 556.567 C 175.488 557.587 181.866 554.562 182.961 545.335 C 183.476 540.994 183.757 540.656 189.354 537.647 C 213.574 524.625 225.683 489.574 216.904 457.895 C 213.311 444.931 204.055 430.026 196.041 424.301 C 191.295 420.910 191.045 420.098 191.722 410.229 L 192.255 402.452 201.377 404.868 C 209.347 406.979 212.839 407.298 229.000 407.392 C 247.877 407.502 255.516 406.667 270.000 402.912 C 285.553 398.880 291.951 394.907 306.000 380.556 C 311.775 374.658 318.170 368.969 320.210 367.916 C 326.168 364.840 333.707 365.342 342.490 369.400 C 357.365 376.273 365.122 383.372 378.328 402.197 C 387.924 415.877 409.387 435.817 429.269 449.523 L 435.037 453.500 434.497 458.500 C 434.200 461.250 433.704 465.300 433.395 467.500 C 432.324 475.129 432.019 494.949 432.938 497.219 C 433.446 498.473 434.102 500.625 434.395 502.000 C 434.689 503.375 438.320 510.408 442.464 517.629 C 446.609 524.850 450.000 531.232 450.000 531.811 C 450.000 532.391 449.098 533.151 447.996 533.501 C 445.233 534.378 436.592 542.955 434.609 546.789 C 433.007 549.888 433.025 549.970 435.698 551.720 C 438.057 553.265 440.865 553.500 456.958 553.500 C 473.737 553.500 475.826 553.309 478.926 551.487 C 483.003 549.092 485.826 544.650 485.927 540.473 C 486.024 536.457 488.266 533.442 492.733 531.323 C 501.913 526.966 513.047 511.410 516.464 498.165 C 518.236 491.299 518.399 476.627 516.761 471.500 C 515.467 467.450 513.118 461.834 511.950 460.000 C 511.425 459.175 510.526 457.404 509.952 456.065 C 509.378 454.725 505.667 450.449 501.704 446.562 C 490.759 435.825 480.748 431.661 460.593 429.461 C 455.160 428.869 454.271 428.401 449.503 423.634 C 446.141 420.271 442.860 415.473 440.165 409.975 C 431.538 392.378 429.476 374.397 432.074 339.409 C 433.913 314.631 431.223 306.006 417.429 292.458 L 409.238 284.414 410.208 278.457 C 410.742 275.181 410.905 268.673 410.572 263.995 L 409.965 255.490 418.513 246.995 C 423.215 242.323 428.182 236.888 429.551 234.918 C 435.928 225.739 440.108 193.803 436.546 181.473 C 430.489 160.504 411.555 141.558 390.581 135.476 C 382.792 133.218 368.539 133.867 361.897 136.782 C 355.981 139.379 350.395 144.306 347.965 149.069 C 343.741 157.349 341.391 176.672 342.957 190.250 C 344.908 207.164 346.423 213.442 351.021 223.660 C 355.816 234.315 361.316 239.155 384.222 252.876 C 389.019 255.749 393.202 258.517 393.517 259.027 C 394.388 260.437 392.190 267.597 390.440 269.050 C 389.171 270.103 387.878 269.998 383.197 268.460 C 378.249 266.834 374.146 266.582 352.000 266.544 C 330.198 266.506 326.062 266.260 323.480 264.843 C 321.210 263.598 318.382 259.371 312.107 247.843 C 307.513 239.404 301.824 229.800 299.465 226.500 C 293.984 218.832 285.746 210.828 280.013 207.598 L 275.526 205.071 275.840 190.785 C 276.552 158.288 268.795 132.898 252.989 115.991 C 250.231 113.042 247.158 109.206 243.782 104.501 C 240.022 99.261 227.301 84.562 223.407 80.958 C 208.614 67.267 191.060 60.294 169.500 59.543 C 163.450 59.332 157.150 59.371 155.500 59.628 "/></g>
</svg>
